<?xml version="1.0" encoding="UTF-8" standalone="no"?>
<!-- Created with Inkscape (http://www.inkscape.org/) -->
<svg
   xmlns:dc="http://purl.org/dc/elements/1.1/"
   xmlns:cc="http://web.resource.org/cc/"
   xmlns:rdf="http://www.w3.org/1999/02/22-rdf-syntax-ns#"
   xmlns:svg="http://www.w3.org/2000/svg"
   xmlns="http://www.w3.org/2000/svg"
   xmlns:xlink="http://www.w3.org/1999/xlink"
   xmlns:sodipodi="http://sodipodi.sourceforge.net/DTD/sodipodi-0.dtd"
   xmlns:inkscape="http://www.inkscape.org/namespaces/inkscape"
   width="566.92914"
   height="566.92914"
   id="svg6842"
   sodipodi:version="0.32"
   inkscape:version="0.45.1"
   version="1.0"
   sodipodi:docbase="/home/carlos/Documents"
   sodipodi:docname="mrSun.svg"
   inkscape:output_extension="org.inkscape.output.svg.inkscape">
  <defs
     id="defs6844">
    <linearGradient
       inkscape:collect="always"
       id="linearGradient6039">
      <stop
         style="stop-color:#fce94f;stop-opacity:1;"
         offset="0"
         id="stop6041" />
      <stop
         style="stop-color:#fce94f;stop-opacity:0;"
         offset="1"
         id="stop6043" />
    </linearGradient>
    <radialGradient
       inkscape:collect="always"
       xlink:href="#linearGradient6039"
       id="radialGradient6319"
       gradientUnits="userSpaceOnUse"
       gradientTransform="matrix(1.1432511,0,0,1.1534834,-48.151898,-225.15558)"
       cx="336.1362"
       cy="1466.9709"
       fx="336.1362"
       fy="1466.9709"
       r="394.89062" />
    <filter
       inkscape:collect="always"
       id="filter6109">
      <feGaussianBlur
         inkscape:collect="always"
         stdDeviation="12.558064"
         id="feGaussianBlur6111" />
    </filter>
    <linearGradient
       inkscape:collect="always"
       xlink:href="#linearGradient6323"
       id="linearGradient6363"
       gradientUnits="userSpaceOnUse"
       gradientTransform="matrix(-1,0,0,1,4446.875,0)"
       x1="2087.5"
       y1="717.98718"
       x2="2131.25"
       y2="450.79968" />
    <linearGradient
       inkscape:collect="always"
       id="linearGradient6323">
      <stop
         style="stop-color:#2e3436;stop-opacity:1;"
         offset="0"
         id="stop6325" />
      <stop
         style="stop-color:#2e3436;stop-opacity:0;"
         offset="1"
         id="stop6327" />
    </linearGradient>
    <linearGradient
       inkscape:collect="always"
       xlink:href="#linearGradient6323"
       id="linearGradient6361"
       gradientUnits="userSpaceOnUse"
       x1="2087.5"
       y1="717.98718"
       x2="2131.25"
       y2="450.79968" />
    <radialGradient
       inkscape:collect="always"
       xlink:href="#linearGradient6039"
       id="radialGradient6874"
       gradientUnits="userSpaceOnUse"
       gradientTransform="matrix(0.7792946,0,0,0.7862694,12.336586,-843.92942)"
       cx="336.1362"
       cy="1466.9709"
       fx="336.1362"
       fy="1466.9709"
       r="394.89062" />
    <radialGradient
       inkscape:collect="always"
       xlink:href="#linearGradient6039"
       id="radialGradient6891"
       gradientUnits="userSpaceOnUse"
       gradientTransform="matrix(0.7792946,0,0,0.7862694,12.336586,-843.92942)"
       cx="336.1362"
       cy="1466.9709"
       fx="336.1362"
       fy="1466.9709"
       r="394.89062" />
    <linearGradient
       inkscape:collect="always"
       xlink:href="#linearGradient6323"
       id="linearGradient6893"
       gradientUnits="userSpaceOnUse"
       x1="2087.5"
       y1="717.98718"
       x2="2131.25"
       y2="450.79968" />
    <linearGradient
       inkscape:collect="always"
       xlink:href="#linearGradient6323"
       id="linearGradient6895"
       gradientUnits="userSpaceOnUse"
       gradientTransform="matrix(-1,0,0,1,4446.875,0)"
       x1="2087.5"
       y1="717.98718"
       x2="2131.25"
       y2="450.79968" />
    <radialGradient
       inkscape:collect="always"
       xlink:href="#linearGradient6039"
       id="radialGradient6906"
       gradientUnits="userSpaceOnUse"
       gradientTransform="matrix(0.7792946,0,0,0.7862694,115.19626,-832.4983)"
       cx="336.1362"
       cy="1466.9709"
       fx="336.1362"
       fy="1466.9709"
       r="394.89062" />
  </defs>
  <sodipodi:namedview
     id="base"
     pagecolor="#ffffff"
     bordercolor="#666666"
     borderopacity="1.0"
     gridtolerance="10000"
     guidetolerance="10"
     objecttolerance="10"
     inkscape:pageopacity="0.0"
     inkscape:pageshadow="2"
     inkscape:zoom="0.35"
     inkscape:cx="660.71429"
     inkscape:cy="157.14286"
     inkscape:document-units="px"
     inkscape:current-layer="layer1"
     showgrid="false"
     width="16cm"
     height="16.000001cm"
     units="cm"
     inkscape:window-width="1018"
     inkscape:window-height="715"
     inkscape:window-x="0"
     inkscape:window-y="0" />
  <metadata
     id="metadata6847">
    <rdf:RDF>
      <cc:Work
         rdf:about="">
        <dc:format>image/svg+xml</dc:format>
        <dc:type
           rdf:resource="http://purl.org/dc/dcmitype/StillImage" />
        <dc:title>Mr. Sun</dc:title>
        <dc:date>Nuvember 9, 2007</dc:date>
        <dc:subject>
          <rdf:Bag>
            <rdf:li>sun</rdf:li>
            <rdf:li>cartoon</rdf:li>
            <rdf:li>summer</rdf:li>
            <rdf:li>glasses</rdf:li>
          </rdf:Bag>
        </dc:subject>
        <dc:creator>
          <cc:Agent>
            <dc:title>Carlos Asmat</dc:title>
          </cc:Agent>
        </dc:creator>
        <dc:description>A smiling cartoon sun.</dc:description>
        <cc:license
           rdf:resource="http://creativecommons.org/licenses/GPL/2.0/" />
      </cc:Work>
      <cc:License
         rdf:about="http://creativecommons.org/licenses/GPL/2.0/">
        <cc:permits
           rdf:resource="http://web.resource.org/cc/Reproduction" />
        <cc:permits
           rdf:resource="http://web.resource.org/cc/Distribution" />
        <cc:requires
           rdf:resource="http://web.resource.org/cc/Notice" />
        <cc:permits
           rdf:resource="http://web.resource.org/cc/DerivativeWorks" />
        <cc:requires
           rdf:resource="http://web.resource.org/cc/ShareAlike" />
        <cc:requires
           rdf:resource="http://web.resource.org/cc/SourceCode" />
      </cc:License>
    </rdf:RDF>
  </metadata>
  <g
     inkscape:label="Layer 1"
     inkscape:groupmode="layer"
     id="layer1"
     transform="translate(-93.680808,-37.471493)">
    <g
       id="g6911">
      <path
         transform="matrix(0.6816478,0,0,0.6816478,148.01889,-679.02149)"
         style="opacity:0.82191784;fill:#f57900;fill-opacity:1;stroke:none;stroke-width:2;stroke-linecap:round;stroke-linejoin:round;stroke-miterlimit:4;stroke-dasharray:none;stroke-dashoffset:0;stroke-opacity:1;filter:url(#filter6109)"
         d="M 376.08362,1074.083 C 311.96476,1105.8798 260.84567,1165.3951 243.77016,1235.407 C 239.06958,1181.2921 249.25851,1125.9768 273.01192,1077.1211 C 219.32062,1124.4591 185.31746,1195.1808 186.97172,1267.2464 C 168.41001,1216.1728 163.97372,1160.0794 174.27526,1106.7226 C 134.63619,1166.3673 120.1275,1243.5224 140.41977,1312.7242 C 109.2461,1268.1792 90.412628,1215.1229 86.550563,1160.8888 C 63.708555,1228.7335 69.653241,1306.9789 107.11006,1368.5665 C 65.50692,1333.622 33.605591,1287.282 15.852147,1235.9297 C 11.369694,1307.3529 37.310439,1381.3923 89.407397,1431.1914 C 40.185288,1408.1996 -2.6151778,1371.6953 -33.05335,1326.6927 C -18.900452,1396.884 25.382422,1461.696 88.643696,1496.2951 C 35.118874,1486.8432 -15.687892,1462.6315 -56.751855,1427.0236 C -24.945229,1491.1722 34.615268,1542.2989 104.66556,1559.3455 C 50.516349,1564.0646 -4.8276282,1553.8301 -53.710826,1530.0641 C -6.3728685,1583.7554 64.348862,1617.7587 136.41439,1616.1043 C 85.340912,1634.6665 29.247978,1639.134 -24.112326,1628.8318 C 35.546273,1668.4294 112.68662,1682.9659 181.88935,1662.6874 C 137.3468,1693.8601 84.284953,1712.6645 30.056715,1716.5255 C 97.896511,1739.3545 176.1418,1733.4471 237.73171,1695.9971 C 202.78711,1737.6003 156.44717,1769.5017 105.09481,1787.255 C 176.51809,1791.7375 250.55747,1765.7967 300.35657,1713.6998 C 277.3695,1762.9161 240.85654,1805.6978 195.86068,1836.1294 C 266.02733,1821.9788 330.82858,1777.7289 365.42641,1714.4919 C 355.96447,1767.9982 331.78757,1818.8034 296.18867,1859.859 C 360.30725,1828.0162 411.46821,1768.4971 428.51071,1698.4416 C 433.22978,1752.5909 422.99527,1807.9348 399.22931,1856.818 C 452.91775,1809.4888 486.89989,1738.7763 485.26669,1666.7239 C 503.81889,1717.778 508.26922,1773.8483 497.96869,1827.1855 C 537.60436,1767.5654 552.11864,1690.4331 531.84971,1621.2489 C 563.0086,1665.7757 581.83625,1718.8078 585.69349,1773.0193 C 608.52936,1705.1757 602.60804,1626.9232 565.134,1565.3415 C 606.7512,1600.2927 638.66095,1646.6465 656.42015,1698.0123 C 660.91734,1626.5857 634.97103,1552.5445 582.865,1502.7506 C 632.08134,1525.7377 674.8631,1562.2506 705.29458,1607.2465 C 691.14401,1537.0798 646.89415,1472.2785 583.65696,1437.6808 C 637.1633,1447.1428 687.96856,1471.3196 729.0242,1506.9184 C 697.18129,1442.7999 637.66232,1391.6389 567.60684,1374.5965 C 621.75605,1369.8774 677.10003,1380.1119 725.98323,1403.8779 C 678.63309,1350.1855 607.90695,1316.1618 535.82966,1317.8037 C 586.90299,1299.2407 642.99676,1294.8052 696.35345,1305.1073 C 636.72489,1265.457 559.57328,1250.9687 490.38305,1271.2546 C 534.91857,1240.0846 587.9614,1221.2419 642.18724,1217.3825 C 574.33867,1194.5337 496.08612,1200.4924 434.50669,1237.9732 C 469.4579,1196.356 515.81165,1164.4462 567.17749,1146.6869 C 495.74206,1142.1826 421.70048,1168.1529 371.91301,1220.2733 C 394.89898,1171.0474 431.40787,1128.2493 476.41171,1097.8126 C 406.23427,1111.9609 341.43283,1156.2303 306.84316,1219.4813 C 316.2971,1165.9576 340.47419,1115.1495 376.08362,1074.083 z "
         id="path6313" />
      <path
         style="fill:#fcaf3e;fill-opacity:1;stroke:none;stroke-width:2;stroke-linecap:round;stroke-linejoin:round;stroke-miterlimit:4;stroke-dasharray:none;stroke-dashoffset:0;stroke-opacity:1"
         d="M 380.05302,51.759755 C 338.48492,77.296395 307.4499,120.84892 300.17243,169.42921 C 293.64668,132.98259 297.15481,94.803564 310.26934,60.173811 C 276.73775,95.618133 258.01257,145.72341 263.57646,194.54363 C 247.82842,161.01583 241.36017,123.20981 245.06543,86.353381 C 221.83167,129.28629 216.73688,182.55761 234.77684,228.2852 C 210.86939,199.96655 194.81468,165.10954 188.85082,128.53034 C 177.52517,175.99477 186.38247,228.74586 215.6055,268.2468 C 185.20954,247.08818 160.69751,217.59587 145.48098,183.82902 C 146.83935,232.59137 169.01193,281.25496 207.44706,311.85099 C 172.61548,299.27609 141.3106,277.13242 117.87424,248.45775 C 131.80744,295.23549 165.86307,336.5047 210.9405,356.09416 C 174.02237,352.97603 138.03986,339.67061 107.96905,318.02843 C 133.51422,359.6161 177.09784,390.6535 225.70241,397.90903 C 189.23366,404.44944 151.03235,400.91217 116.38314,387.79079 C 151.82744,421.32234 201.93275,440.04768 250.75296,434.48366 C 217.22525,450.23204 179.42149,456.72147 142.56264,453.01596 C 185.5024,476.22068 238.76542,481.33529 284.49453,463.30462 C 256.17747,487.21123 221.31488,503.24659 184.7396,509.2093 C 232.19989,520.52643 284.95319,511.69445 324.45613,482.47596 C 303.29747,512.87193 273.80515,537.38399 240.03828,552.60048 C 288.80067,551.24209 337.46424,529.06952 368.06032,490.6344 C 355.48826,525.46176 333.33753,556.75444 304.66708,580.18588 C 351.42817,566.25579 392.69212,532.22323 412.28222,487.16229 C 409.15615,524.06847 395.87427,560.04782 374.23769,590.11237 C 415.80276,564.54451 446.86597,520.98688 454.11836,472.37905 C 460.65877,508.84782 457.12146,547.04907 444.00011,581.69832 C 477.5303,546.26013 496.24178,496.16236 490.69299,447.34976 C 506.43338,480.86495 512.90974,518.65442 509.20395,555.49748 C 532.43691,512.58148 537.53691,459.32529 519.51387,413.6082 C 543.41017,441.91539 559.45944,476.75639 565.41863,513.32052 C 576.74019,465.85725 567.89831,413.09989 538.66395,373.60399 C 569.06987,394.76629 593.58847,424.26746 608.80974,458.04311 C 607.46116,409.27755 585.28469,360.61308 546.84373,330.02113 C 581.67109,342.59317 612.96381,364.74386 636.3952,393.41438 C 622.46512,346.65327 588.43255,305.38925 543.37155,285.79923 C 580.27776,288.92534 616.2571,302.20718 646.3217,323.8437 C 620.75375,282.27866 577.19621,251.21542 528.58838,243.9631 C 565.05712,237.42269 603.25843,240.95996 637.90765,254.08134 C 602.45501,220.54979 552.34545,201.81089 503.51649,207.36713 C 537.04404,191.61821 574.85035,185.15053 611.70674,188.85617 C 568.78412,165.61375 515.51643,160.53261 469.79626,178.56751 C 498.1087,154.66315 532.95603,138.60298 569.52978,132.64149 C 522.06231,121.31142 469.30724,130.1787 429.81332,159.41751 C 450.9756,129.01158 480.47678,104.49298 514.25244,89.271651 C 465.48045,90.615929 416.8172,112.80868 386.23046,151.259 C 398.80119,116.42523 420.94815,85.121643 449.62371,61.686251 C 402.85514,75.615451 361.59227,109.6613 342.00856,154.73118 C 345.12814,117.81368 358.40996,81.832352 380.05302,51.759755 z "
         id="path6315" />
      <path
         id="path6317"
         d="M 380.05302,51.759755 C 338.48492,77.296395 307.4499,120.84892 300.17243,169.42921 C 293.64668,132.98259 297.15481,94.803564 310.26934,60.173811 C 276.73775,95.618133 258.01257,145.72341 263.57646,194.54363 C 247.82842,161.01583 241.36017,123.20981 245.06543,86.353381 C 221.83167,129.28629 216.73688,182.55761 234.77684,228.2852 C 210.86939,199.96655 194.81468,165.10954 188.85082,128.53034 C 177.52517,175.99477 186.38247,228.74586 215.6055,268.2468 C 185.20954,247.08818 160.69751,217.59587 145.48098,183.82902 C 146.83935,232.59137 169.01193,281.25496 207.44706,311.85099 C 172.61548,299.27609 141.3106,277.13242 117.87424,248.45775 C 131.80744,295.23549 165.86307,336.5047 210.9405,356.09416 C 174.02237,352.97603 138.03986,339.67061 107.96905,318.02843 C 133.51422,359.6161 177.09784,390.6535 225.70241,397.90903 C 189.23366,404.44944 151.03235,400.91217 116.38314,387.79079 C 151.82744,421.32234 201.93275,440.04768 250.75296,434.48366 C 217.22525,450.23204 179.42149,456.72147 142.56264,453.01596 C 185.5024,476.22068 238.76542,481.33529 284.49453,463.30462 C 256.17747,487.21123 221.31488,503.24659 184.7396,509.2093 C 232.19989,520.52643 284.95319,511.69445 324.45613,482.47596 C 303.29747,512.87193 273.80515,537.38399 240.03828,552.60048 C 288.80067,551.24209 337.46424,529.06952 368.06032,490.6344 C 355.48826,525.46176 333.33753,556.75444 304.66708,580.18588 C 351.42817,566.25579 392.69212,532.22323 412.28222,487.16229 C 409.15615,524.06847 395.87427,560.04782 374.23769,590.11237 C 415.80276,564.54451 446.86597,520.98688 454.11836,472.37905 C 460.65877,508.84782 457.12146,547.04907 444.00011,581.69832 C 477.5303,546.26013 496.24178,496.16236 490.69299,447.34976 C 506.43338,480.86495 512.90974,518.65442 509.20395,555.49748 C 532.43691,512.58148 537.53691,459.32529 519.51387,413.6082 C 543.41017,441.91539 559.45944,476.75639 565.41863,513.32052 C 576.74019,465.85725 567.89831,413.09989 538.66395,373.60399 C 569.06987,394.76629 593.58847,424.26746 608.80974,458.04311 C 607.46116,409.27755 585.28469,360.61308 546.84373,330.02113 C 581.67109,342.59317 612.96381,364.74386 636.3952,393.41438 C 622.46512,346.65327 588.43255,305.38925 543.37155,285.79923 C 580.27776,288.92534 616.2571,302.20718 646.3217,323.8437 C 620.75375,282.27866 577.19621,251.21542 528.58838,243.9631 C 565.05712,237.42269 603.25843,240.95996 637.90765,254.08134 C 602.45501,220.54979 552.34545,201.81089 503.51649,207.36713 C 537.04404,191.61821 574.85035,185.15053 611.70674,188.85617 C 568.78412,165.61375 515.51643,160.53261 469.79626,178.56751 C 498.1087,154.66315 532.95603,138.60298 569.52978,132.64149 C 522.06231,121.31142 469.30724,130.1787 429.81332,159.41751 C 450.9756,129.01158 480.47678,104.49298 514.25244,89.271651 C 465.48045,90.615929 416.8172,112.80868 386.23046,151.259 C 398.80119,116.42523 420.94815,85.121643 449.62371,61.686251 C 402.85514,75.615451 361.59227,109.6613 342.00856,154.73118 C 345.12814,117.81368 358.40996,81.832352 380.05302,51.759755 z "
         style="fill:url(#radialGradient6906);fill-opacity:1;stroke:none;stroke-width:2;stroke-linecap:round;stroke-linejoin:round;stroke-miterlimit:4;stroke-dasharray:none;stroke-dashoffset:0;stroke-opacity:1" />
      <path
         sodipodi:nodetypes="cczcsscc"
         id="path6498"
         d="M 467.58391,239.22211 C 448.84405,241.61879 431.7625,247.36378 409.69709,256.21007 C 416.12223,260.25006 446.60075,249.36115 457.3592,247.1888 C 468.11764,245.01646 484.4896,245.35579 498.25807,256.71061 C 499.19049,257.54903 500.50791,257.80786 501.68819,257.38442 C 502.86853,256.96098 503.721,255.92371 503.90777,254.68373 C 504.09454,253.44381 503.58542,252.20144 502.58224,251.4491 C 491.06811,241.95348 479.18045,238.94557 467.58391,239.22211 z "
         style="opacity:0.39269403;fill:#ce5c00;fill-opacity:1;fill-rule:evenodd;stroke:none;stroke-width:10;stroke-linecap:round;stroke-linejoin:round;stroke-miterlimit:4;stroke-dasharray:none;stroke-opacity:1" />
      <g
         transform="matrix(0.4725294,0,0,0.4725294,-673.4942,-6.195995)"
         id="g6347">
        <path
           style="opacity:0.76712329;fill:url(#linearGradient6893);fill-opacity:1;stroke:none;stroke-width:4;stroke-linecap:round;stroke-linejoin:miter;stroke-miterlimit:4;stroke-dashoffset:0;stroke-opacity:1"
           d="M 2164.1128,564.95536 C 2178.0168,567.83899 2183.9397,582.9849 2187.9995,595.07599 C 2194.9972,618.49125 2194.6746,643.43511 2192.3497,667.53139 C 2189.6603,684.45765 2190.6946,705.50444 2171.8127,714.76639 C 2153.8161,723.5941 2024.896,731.29223 1957.7622,717.89401 C 1943.8582,715.01037 1937.9353,699.86447 1933.8755,687.77337 C 1926.8778,664.35811 1927.2004,639.41425 1929.5253,615.31798 C 1932.2147,598.39172 1931.0812,579.4899 1950.0623,568.08297 C 1969.5138,556.39332 2096.72,558.01973 2164.1128,564.95536 z "
           id="rect6321"
           sodipodi:nodetypes="ccczccczc" />
        <path
           sodipodi:nodetypes="ccczccczc"
           id="path6337"
           d="M 2282.7622,564.95536 C 2268.8582,567.83899 2262.9353,582.9849 2258.8755,595.07599 C 2251.8778,618.49125 2252.2004,643.43511 2254.5253,667.53139 C 2257.2147,684.45765 2256.1804,705.50444 2275.0623,714.76639 C 2293.0589,723.5941 2421.979,731.29223 2489.1128,717.89401 C 2503.0168,715.01037 2508.9397,699.86447 2512.9995,687.77337 C 2519.9972,664.35811 2519.6746,639.41425 2517.3497,615.31798 C 2514.6603,598.39172 2515.7938,579.4899 2496.8127,568.08297 C 2477.3612,556.39332 2350.155,558.01973 2282.7622,564.95536 z "
           style="opacity:0.76712329;fill:url(#linearGradient6895);fill-opacity:1;stroke:none;stroke-width:4;stroke-linecap:round;stroke-linejoin:miter;stroke-miterlimit:4;stroke-dashoffset:0;stroke-opacity:1" />
      </g>
      <path
         sodipodi:nodetypes="cc"
         id="path6345"
         d="M 348.35062,274.9787 C 363.35867,261.85821 390.92744,261.45828 405.94012,274.9787"
         style="fill:none;fill-rule:evenodd;stroke:#555753;stroke-width:4.72529364;stroke-linecap:round;stroke-linejoin:round;stroke-miterlimit:4;stroke-dasharray:none;stroke-opacity:1" />
      <path
         sodipodi:nodetypes="czzzc"
         id="path6365"
         d="M 467.04187,386.04435 C 422.13348,414.31747 367.56859,415.38234 338.78724,410.67842 C 310.00589,405.97451 301.24064,395.70119 308.33667,416.71619 C 315.43269,437.73119 375.04477,437.00789 403.42013,434.28191 C 432.54163,431.48429 465.19999,415.10102 467.04187,386.04435 z "
         style="fill:#ce5c00;fill-opacity:1;fill-rule:evenodd;stroke:none;stroke-width:30;stroke-linecap:round;stroke-linejoin:round;stroke-miterlimit:4;stroke-dasharray:none;stroke-opacity:1" />
      <path
         sodipodi:nodetypes="cczc"
         id="path6520"
         d="M 347.75738,259.28015 C 305.9479,239.78216 286.40376,249.15202 252.96996,252.25133 C 262.58542,241.97406 277.89993,240.00512 293.57892,240.30498 C 309.21906,240.60409 332.27743,243.94689 347.75738,259.28015 z "
         style="opacity:0.39269403;fill:#ce5c00;fill-opacity:1;fill-rule:evenodd;stroke:none;stroke-width:10;stroke-linecap:round;stroke-linejoin:round;stroke-miterlimit:4;stroke-dasharray:none;stroke-opacity:1" />
      <path
         sodipodi:nodetypes="ccczc"
         id="path6522"
         d="M 462.47933,382.74906 C 465.4113,382.59569 467.75917,380.59376 470.92017,381.03554 C 474.93849,383.08457 469.45286,390.73061 475.40603,389.91005 C 477.79991,387.07903 477.20769,383.10413 475.03719,379.1488 C 472.86669,375.19347 464.80722,378.62803 462.47933,382.74906 z "
         style="opacity:0.21461188;fill:#ce5c00;fill-opacity:1;fill-rule:evenodd;stroke:none;stroke-width:6;stroke-linecap:round;stroke-linejoin:round;stroke-miterlimit:4;stroke-dasharray:none;stroke-opacity:1" />
    </g>
  </g>
</svg>
